<svg id="svg" xmlns="http://www.w3.org/2000/svg" xmlns:xlink="http://www.w3.org/1999/xlink" version="1.1" width="375" height="315" preserveAspectRatio="xMidYMid meet" buffered-rendering="static" style="background: rgb(255, 255, 255);" viewBox="12.73 56.99 711.86 573.02"><g><path d="M 47.25 57.06965172466073 C 39.75618613294317 57.11407360211834 33.68885696470503 57.692107569041454 30.5 58.66542289142828 C 27.75 59.50478858458704 23.511583103485016 61.83594530848971 21.08129578552225 63.845771166767555 C 18.580645038909356 65.91378695071093 15.802514708031214 69.45334201757878 14.681194637620012 72 C 13.202507327102886 75.35828363569063 12.707513189218323 78.65657535480659 12.730207781240905 85 C 12.750095039137529 90.55873935699053 13.518370049470182 96.26824531106774 14.950459020568596 101.5 C 16.154871659823865 105.9 18.298448555658176 112.425 19.71396323353374 116 C 21.1294779114093 119.575 24.645190734532065 127.225 27.526658396028772 133 C 30.408126057525482 138.775 35.90452080430279 147.55 39.7408689444228 152.5 C 43.5772170845428 157.45 51.279936720278585 166.7875 56.85802369050231 173.25 C 65.79718810774649 183.60648069935408 67.0018526037314 185.4447402023338 67.01562094894118 188.75 C 67.02421247085883 190.8125 67.68291035320884 195.2 68.47939402083011 198.5 C 69.27587768845137 201.8 71.47894465488777 206.975 73.37509839068876 210 C 75.27125212648976 213.025 77.82535437176777 218.425 79.05088115797325 222 C 80.27640794417873 225.575 82.62485199742028 231.2 84.26964572073226 234.5 C 85.91443944404425 237.8 88.50453583863252 242.3 90.02541548648396 244.5 C 92.29016505733806 247.77603111983103 92.89260073851659 249.94793776033794 93.3539324859325 256.5 C 93.66373718777776 260.9 94.73324747745235 266.975 95.73062201854272 270 C 96.72799655963308 273.025 98.86188570214313 277.75 100.47259789078726 280.5 C 102.08331007943137 283.25 105.44840326754047 287.45183580020216 107.95058275325192 289.8374128893381 C 110.45276223896336 292.22298997847406 114.8625 295.2604899784741 117.75 296.5874128893381 C 120.6375 297.91433580020214 124.6875 299.3522298558236 126.75 299.7827330129413 L 130.5 300.5654660258827 L 126 303.5651086297869 C 123.25346061836575 305.3959167503315 120.24338772584166 308.6952543518861 118.27508854519766 312.0323756168455 C 116.50138724505636 315.03956902758046 114.76065907278256 319.075 114.40680371792251 321 C 114.05294836306248 322.925 112.21619609501192 326.75 110.3251320111435 329.5 C 108.43406792727505 332.25 106.42210302344489 336.3 105.8540988915209 338.5 C 105.28609475959692 340.7 103.60149861441087 344.525 102.11055190221857 347 C 100.61960519002628 349.475 98.55616215028776 353.3 97.52512292502189 355.5 C 96.494083699756 357.7 95.61664226765367 361.6118813172639 95.5752530759056 364.19306959391974 C 95.5103704377362 368.2393990323079 95.96094818773604 369.34185897685165 98.84487027863346 372.19306959391974 L 102.18974055726693 375.5 L 100.48839094989656 380 C 99.25506964014673 383.26208432989404 98.98711025389395 385.73791567010596 99.51432036717723 389 C 99.91432383073531 391.475 100.21030863072988 394.85 100.17206436716515 396.5 C 100.13382010360043 398.15 99.81949677957158 401.3 99.47356809154547 403.5 C 98.93434566916054 406.92928866644735 99.2837259204075 408.1063807918997 101.92230342029447 411.75 C 103.61503653913252 414.0875 105 417.125 105 418.5 C 105 419.875 105.675 422.575 106.5 424.5 C 107.325 426.425 109.2375 428.6222993285638 110.75 429.3828873968084 C 113.20996986617601 430.6199278784315 113.57894032061442 431.49001827990344 114.24849422998723 437.6328873968084 C 114.81447844406549 442.82554910880395 115.54598715287179 445.0206062062378 117.24849422998723 446.63506496903085 C 118.48682240349426 447.80935070199786 120.4 449.06936192089506 121.5 449.4350898999136 C 122.6 449.80081787893204 125.75 453.095922629123 128.5 456.7575449003379 C 131.25 460.41916717155283 135.075 464.4592743876663 137 465.7355609361457 C 138.925 467.0118474846251 141.5125 468.0434634983702 142.75 468.02804096669047 C 144.10271452013794 468.0111825565567 145.44752070522333 468.8972854798621 146.12218642711932 470.25 C 146.73938896203495 471.4875 148.42688896203495 473.7492014912559 149.87218642711932 475.27600331390204 C 151.31748389220368 476.80280513654816 154.075 478.5537062750064 156 479.1668947326981 C 157.925 479.78008319038975 161.075 481.6915552402824 163 483.41461039912616 C 164.925 485.1376655579699 168.075 487.18728189644094 170 487.9693133735062 C 171.925 488.7513448505715 175.75 491.10785068942664 178.5 493.20599301540653 C 181.4354260216432 495.4456081356946 185.15165918268545 497.2878135254363 187.5 497.6674591799852 C 189.85191631131704 498.04768286850214 192.73606276651222 497.8175811067376 194.5 497.1089881184861 C 197.07596080611987 496.0741963296547 198.59543458419034 496.2640159824945 205.25 498.4519275607313 C 209.5125 499.85336740232907 216.4875 501.28898236832174 220.75 501.64218304071494 C 226.34125081049865 502.1054870983777 230.58911211887227 501.82017807181916 236 500.61791168645937 C 240.125 499.7013617692255 246.24400683271995 498.8498794009038 249.5977929615999 498.72572864574437 L 255.69558592319981 498.5 L 263.0977929615999 491.86655915625363 C 267.16900683271996 488.21816669219317 275.31092409619123 480.34316669219317 281.1909424359805 474.36655915625363 C 287.0709607757698 468.38995162031415 294.50374507793754 460.35 297.7082408852423 456.5 C 300.91273669254696 452.65 307.56078273968774 444.1 312.4816765455552 437.5 C 317.4025703514227 430.9 325.3030360040907 419.425 330.0382668848176 412 C 334.77349776554445 404.575 342.5000236690294 391.975 347.2083244481176 384 C 351.91662522720577 376.025 356.68520930379026 368.375 357.80517795163865 367 L 359.8414845840903 364.5 L 359.9111016631428 389.5 C 359.94939105662166 403.25 360.46005589185336 418.325 361.0459124081021 423 C 361.6317689243508 427.675 362.5361072073569 433.4125 363.0555530370044 435.75 C 363.574998866652 438.0875 364.5625 440.90149246818737 365.25 442.00331659597197 C 365.9375 443.10514072375656 367.5125 444.00514072375654 368.75 444.00331659597197 C 370.48196124179066 444.00076361122615 371.36286008701194 443.02148234560457 372.5760117999645 439.75 C 373.44281828994497 437.4125 374.79162048566116 431.225 375.5733500126671 426 C 376.3550795396731 420.775 377.4964566295381 406.6 378.10974354570044 394.5 C 378.7230304618627 382.4 379.06172826614653 369.7334430817012 378.86240533299775 366.3520957371138 C 378.569214813468 361.3783630661716 378.7472378923422 360.4234266018611 379.79452535106986 361.3520957371138 C 380.5065142941583 361.9834430817012 381.0690142941583 362.8375 381.04452535106986 363.25 C 381.0200364079814 363.6625 383.10843427264825 367.7125 385.6854094947739 372.25 C 388.26238471689953 376.7875 393.9682614165034 386.575 398.3651354938937 394 C 402.76200957128395 401.425 409.5071805585783 412.225 413.35440435454774 418 C 417.2016281505172 423.775 424.41831186308355 433.9 429.3914792713618 440.5 C 434.36464667964003 447.1 441.3512909803334 455.875 444.91735549512475 460 C 448.48342000991613 464.125 454.1233595977459 470.3574591469783 457.4505545791909 473.8499092155073 C 460.7777495606359 477.34235928403626 467.95876270106896 484.3173592840363 473.408361557931 489.3499092155073 L 483.3167231158621 498.5 L 488.908361557931 498.6270369460558 C 491.983762701069 498.69690726638646 498.1 499.54838963470826 502.5 500.51921998677085 C 508.187144592428 501.7740501201568 512.6683019445987 502.1169363470311 518 501.7052387089159 C 522.125 501.386718654033 529.1 499.9372307517549 533.5 498.4841544816312 C 539.8441749753066 496.3890249111469 541.965700788195 496.06550657484746 543.75 496.9210988134304 C 544.9875 497.5144944660437 547.35 498 549 498 C 550.65 498 553.4625 497.2594663824629 555.25 496.35436973880644 C 557.0375 495.4492730951499 560.075 493.4212059205906 562 491.8475537953411 C 563.925 490.2739016700917 566.0625 488.9894352876288 566.75 488.9931840565347 C 567.4375 488.99693282544064 570.1375 487.3451374398749 572.75 485.3225276441664 C 575.3625 483.29991784845794 579.975 480.38186182267197 583 478.8379586979753 C 586.7314220298236 476.93351105122935 589.3038990773529 474.7380919176706 591 472.0105496505987 C 592.8585658526014 469.02174347083724 594.1414341473986 468.0003633361584 596 468.0297039986282 C 597.375 468.0514107414049 599.8199878130622 467.0411073728494 601.4333062512493 465.78458540183834 C 603.0466246894364 464.5280634308273 606.7591246894364 460.4625 609.6833062512493 456.75 C 612.6074878130622 453.0375 616.125 449.55 617.5 449 C 618.875 448.45 620.6784794126945 446.9875 621.5077320282101 445.75 C 622.3776905443101 444.4517542742334 623.0121933937991 441.2792400267888 623.0077320282101 438.25 C 623.0017902290698 434.2155546204995 623.468717857313 432.5948151265002 625.0243999812051 431.25 C 626.137819970868 430.2875 628.1779877955715 428.375 629.5581062583242 427 C 631.293092855071 425.27144796993105 632.0626267971134 423.4199728420965 632.0519035461411 421 C 632.0418798949298 418.73790954134034 633.1099388632583 415.9084020182767 635.0716770144854 413 C 636.7410823765282 410.525 638.3438795249066 407.6 638.6334484553263 406.5 C 638.9230173857461 405.4 638.4856077437635 402.925 637.6614270286983 401 C 636.3135654972493 397.8518634316334 636.3306591524587 396.9701172173057 637.8314583188353 392.22923420651887 L 639.5 386.9584684130378 L 637.5 381.56441547875613 L 635.5 376.1703625444744 L 638.75 372.5851812722372 C 641.3293272721701 369.7398410164972 642.0051087079428 368.1229664328378 642.0247561890101 364.75 C 642.0383720929657 362.4125 641.0688023992285 358.25 639.8701568695942 355.5 C 638.6715113399599 352.75 636.6689160201889 348.925 635.4199450478809 347 C 634.1709740755729 345.075 632.679586316991 341.7 632.1057500288102 339.5 C 631.5319137406293 337.3 629.6369926950009 333.25 627.8948143718583 330.5 C 626.1526360487157 327.75 623.8374274275811 322.8 622.7499063248924 319.5 C 621.6623852222039 316.2 619.5459583122407 311.7 618.0467354138632 309.5 C 616.5475125154856 307.3 613.5611785889392 304.4130969486335 611.4104377993156 303.08465988585226 L 607.5 300.6693197717045 L 611.25 299.83465988585226 C 613.3125 299.37559694863353 617.3625 297.90496557970727 620.25 296.5665901771273 C 623.258596384733 295.17208579699997 627.9116606385995 291.6498801158661 631.1487900110483 288.3165901771273 C 634.2556245171247 285.1174655797073 637.937294669288 280.025 639.3302792380777 277 C 640.7232638068673 273.975 642.5688083018956 268.0125 643.4314892270295 263.75 C 644.2941701521632 259.4875 645 254.2 645 252 C 645 249.03504394702958 645.9376992414736 246.6415048195237 648.6238045511582 242.75 C 650.6168970542952 239.8625 653.1410345345798 235.475 654.2329989517906 233 C 655.3249633690014 230.525 657.307987673716 225.35 658.6397196289342 221.5 C 659.9714515841524 217.65 662.1514921028463 212.925 663.4842541149208 211 C 664.8170161269951 209.075 666.6510261949111 205.7 667.559832043623 203.5 C 668.468637892335 201.3 669.4390771250235 196.35 669.7163636718196 192.5 L 670.220521029631 185.5 L 679.1701775632366 175 C 684.0924886567199 169.225 691.6594197303776 160 695.9855799491429 154.5 C 701.0909628158795 148.00934677702116 705.9392108883834 140.2887838675746 709.8008235843681 132.5 C 713.0730473649767 125.9 717.1292033054992 116.45 718.8145034521958 111.5 C 720.4998035988924 106.55 722.6058668844846 98.675 723.4946440868451 94 C 724.7931477674126 87.16982401154023 724.8975279655058 84.3213006977363 724.0259765372475 79.5 C 723.4294321826083 76.2 721.8295465893751 71.5875 720.4706752189518 69.25 C 719.1118038485283 66.9125 716.3125 63.87552778411908 714.25 62.50117285359795 C 712.1875 61.126817923076814 708.25 59.32091834884586 705.5 58.488062688640255 C 702.2933510997472 57.51690789341565 696.464960025569 56.97848189583357 689.25 56.986889835042305 C 682.2151444241473 56.99508788989146 674.3468748324057 57.72380801691629 668.25 58.93180573924356 C 662.8875 59.99429889582751 655.35 61.75966639783754 651.5 62.85484463259917 C 647.65 63.950022867360794 642.025 65.6060136898813 639 66.53482423820029 C 635.975 67.46363478651926 628.1 70.23427676167191 621.5 72.69180640520617 C 614.9 75.14933604874044 605.225 78.95442031966407 600 81.14754922948092 C 594.775 83.34067813929775 589.15 85.72514772277303 587.5 86.44637052609262 C 585.85 87.16759332941221 579.775 89.93555982159863 574 92.59740717539577 C 568.225 95.2592545291929 556.975 100.77487050449906 549 104.85433156496501 C 541.025 108.93379262543097 531.35 114.33252141464814 527.5 116.85150665211428 C 523.65 119.37049188958042 514.875 125.43559203459994 508 130.32950697437985 C 501.125 135.2234219141598 490.55 143.09312375144793 484.5 147.81773327946462 C 478.45 152.5423428074813 468.325 160.68979952510276 462 165.92319265195675 C 455.675 171.15658577881072 441.25300012676854 184.67730098401526 429.95111139281903 195.96922644130018 C 418.64922265886946 207.26115189858507 405.63536283581504 221.225 401.03142289714253 227 C 396.42748295847 232.775 390.4556954789894 240.875 387.7607840538523 245 C 385.0658726287152 249.125 382.4422324517696 252.6125 381.93047254952876 252.75 C 381.418712647288 252.8875 380.99310925146733 251.9875 380.98468722548296 250.75 C 380.9762651994985 249.5125 380.5597842046674 247.825 380.05917390363595 247 C 379.41522156340545 245.93877397329715 379.8584747679806 244.69558104895526 381.574486678153 242.75 C 382.90851900516884 241.2375 384 239.55 384 239 C 384 238.45 383.2125 237.25600311329757 382.25 236.3466735851057 C 381.2875 235.43734405691382 379.2625 234.31234405691382 377.75 233.8466735851057 C 376.119788628017 233.34476198263408 375.00020531794684 232.28740723671646 375.00050422404706 231.25 C 375.00078154727294 230.2875 375.9403231485333 227.025 377.0883744490701 224 C 378.23642574960695 220.975 381.3640200224018 214.225 384.03858394416983 209 C 386.71314786593786 203.775 391.457881905605 195.675 394.58243736565237 191 C 397.70699282569973 186.325 403.0016631701633 179.125 406.34837146446023 175 C 409.69507975875723 170.875 415.8407405934798 164.125 420.00539554162145 160 C 424.1700504897631 155.875 431.83505897168357 149.0789236732186 437.0387477236668 144.89760816270802 C 442.24243647565004 140.71629265219744 447.175 136.533756244216 448 135.60308281163813 C 449.344396678952 134.08648369412717 449.3184627921107 133.9155681595251 447.75 133.9554746489301 C 446.7875 133.97996359201855 443.1875 136.33144500633898 439.75 139.18098890297549 C 436.3125 142.030532799612 427.1676841385596 150.693032799612 419.4281869745769 158.43098890297549 C 411.68868981059416 166.16894500633896 402.64085195916226 176.1 399.32188063806154 180.5 C 396.00290931696077 184.9 391.5023628335376 191.425 389.3206662304544 195 C 387.1389696273712 198.575 383.86931112180594 204.2 382.05475844030946 207.5 C 380.2402057588129 210.8 377.0258790958005 217.775 374.9118103002819 223 C 372.79774150476334 228.225 370.6027378617605 232.6125 370.0340244269422 232.75 C 369.465310992124 232.8875 365.5748735562388 226.3625 361.38860790275294 218.25 C 357.202342249267 210.1375 351.7191868491081 200.35 349.203818124622 196.5 C 346.6884494001359 192.65 342.37368838468876 186.35 339.61546031251726 182.5 C 336.8572322403457 178.65 331.15586431457723 171.45 326.94575381080944 166.5 C 322.73564330704164 161.55 316.23839147146765 154.8 312.5074163984228 151.5 C 308.7764413253779 148.2 303.4234646513053 143.79074491894087 300.6119126782615 141.70165537542417 C 297.80036070521766 139.61256583190746 293.025 136.76741108346675 290 135.37908926777817 C 286.12801178114466 133.60204275064558 284.2039978579737 133.17234965003604 283.5 133.927433892354 L 282.5 135 L 283.5 135.832755172735 C 284.05 136.29077051773928 287.2 137.68077571972844 290.5 138.92165562159983 C 293.8 140.16253552347123 298.525 142.58300681724336 301 144.30048071887126 C 303.475 146.01795462049913 310.25036549786773 152.16544941850995 316.05636777303937 157.96158027000644 C 321.86237004821106 163.7577111215029 328.42593012811176 170.75 330.64205683948535 173.5 C 332.858183550859 176.25 336.9036650819355 181.65 339.63201579743316 185.5 C 342.36036651293085 189.35 346.2167266921455 195.2 348.2017050845769 198.5 C 350.1866834770082 201.8 354.06562585402236 209 356.8215770334972 214.5 C 359.577528212972 220 362.54510795385664 226.1875 363.41619867990755 228.25 C 364.2872894059584 230.3125 364.775 232.45 364.5 233 C 364.225 233.55 363.1 234 362 234 C 360.9 234 359.1 234.9 358 236 C 356.9 237.1 356 238.45 356 239 C 356 239.55 357.125 241.35 358.5 243 L 361 246 L 359.25 250.04722602406287 L 357.5 254.0944520481257 L 350.8326442635991 244.29722602406287 C 347.1655986085786 238.90875171082828 340.0609318758063 229.55 335.04449596854954 223.5 C 330.02806006129276 217.45 319.9783701426732 206.481764552729 312.71185170495045 199.1261434505089 C 305.4453332672277 191.7705223482888 294.2125 181.0830223482888 287.75 175.3761434505089 C 281.2875 169.669264552729 271.6125 161.50597519210945 266.25 157.23550042690985 C 260.8875 152.96502566171026 250.425 144.93164493661632 243 139.3835432600344 C 235.575 133.83544158345248 223.86769026331922 125.51696639134305 216.98375614070937 120.89804283312455 C 209.89241590211938 116.1399556835415 195.58925742296944 108.09535908573592 183.98375614070937 102.3376886208316 C 172.7176902633192 96.74841736228898 155.4 88.6910602326903 145.5 84.43245055505677 C 135.6 80.17384087742325 120.525 74.25676852093544 112 71.28340087397277 C 103.475 68.31003322701008 92.675 64.80001998764776 88 63.48337145316759 C 83.325 62.16672291868743 74.8875 60.16933539580101 69.25 59.04473251342001 C 62.20551536242709 57.63945575451922 55.32538482843723 57.02178240716288 47.25 57.06965172466073 Z " class="odd" fill="#000000"></path><path d="M 81.25 65.00373806043756 C 83.0375 65.00579399367821 85.9625 65.90579399367822 87.75 67.00373806043756 C 89.5375 68.1016821271969 91 69.45 91 70 C 91 70.59198084313196 89.46992816174485 70.76339285609298 87.25 70.42010775738272 C 85.1875 70.10116702394322 82.40822889765481 69.31366702394322 81.07384199478847 68.67010775738272 C 79.73945509192211 68.02654849082222 78.50195509192211 66.9375 78.32384199478847 66.25 C 78.11385493287092 65.43946945849818 79.14262059209527 65.00131421071706 81.25 65.00373806043756 Z " class="even" fill="#ffffff"></path><path d="M 659.4216720596108 66.25225088509718 C 660.4785916923968 66.38851289829373 661.5015287283021 66.95 661.6948654727338 67.5 C 661.8882022171655 68.05 660.4609497903406 69.2875 658.523193413123 70.25 C 656.5854370359053 71.2125 653.65 72 652 72 C 650.35 72 649 71.55 649 71 C 649 70.45 650.9125 69.10101289829373 653.25 68.00225088509718 C 655.5875 66.90348887190063 658.3647524268249 66.11598887190064 659.4216720596108 66.25225088509718 Z " class="even" fill="#ffffff"></path><path d="M 54.25 66.98333333333333 C 55.2125 66.9925 57.6875 67.7875 59.75 68.75 C 61.8125 69.7125 63.83060925146732 70.95 64.23468722548293 71.5 C 64.63876519949855 72.05 64.97626519949856 73.7375 64.98468722548293 75.25 C 64.99550148418615 77.19211776583586 64.19211776583586 78.4855770052295 62.25 79.65288541808661 C 60.7375 80.56197239803424 57.7870131155465 81.57447239803425 55.69336247899223 81.90288541808661 C 52.90177772901089 82.3407773769773 51.63925736513406 82.10001992621126 50.958675253509284 81 C 50.44824791604795 80.175 50.01623480050145 77.25 49.9986461078504 74.5 C 49.981057415199345 71.75 50.53666666666667 68.93 51.233333333333334 68.23333333333333 C 51.93 67.53666666666666 53.2875 66.97416666666666 54.25 66.98333333333333 Z " class="even" fill="#ffffff"></path><path d="M 32.48978433131714 68.19751892959144 C 33.584165713541566 68.36388351831616 34.59666571354157 69.2875 34.73978433131714 70.25 C 34.901398092703545 71.33688336816067 34.33688336816068 72.01687171476166 33.25 72.04452535106988 C 32.2875 72.06901429415831 30.941079508018564 71.50651429415831 30.257954462263477 70.79452535106988 C 29.574829416508386 70.08253640798145 29.349829416508385 69.13888351831615 29.757954462263477 68.69751892959144 C 30.166079508018562 68.25615434086674 31.395402949092713 68.03115434086673 32.48978433131714 68.19751892959144 Z " class="even" fill="#ffffff"></path><path d="M 686.25 68.46477805247324 C 686.9375 68.72040598133353 688.0844325774721 70.18290598133352 688.798739061049 71.71477805247324 C 689.5130455446258 73.24665012361297 689.9630455446259 76.2544254574384 689.798739061049 78.398723238752 C 689.634432577472 80.5430210200656 688.825 82.75540215955122 688 83.31512577094229 C 686.9407032885508 84.03380865684167 685.1044395862556 83.84321234705676 681.75 82.66640253219029 C 679.1375 81.74988113948564 676.3186637319955 79.9875 675.4859194044344 78.75 C 674.5527324730576 77.3632372333764 674.2649867285988 75.79722984293548 674.7359194044344 74.66825225759729 C 675.1561637319954 73.6607909992758 677.6375 71.7482909992758 680.25 70.41825225759729 C 682.8625 69.08821351591878 685.5625 68.20915012361296 686.25 68.46477805247324 Z " class="even" fill="#ffffff"></path><path d="M 708 68.99864610785039 C 708.275 69.01623480050145 709.175 69.48228622097248 710 70.03431593111937 C 711.2944468982873 70.9004651990734 711.2259291977164 71.24328261433374 709.5 72.53598639294128 C 708.4 73.35987543679647 706.9375 74.02632401632543 706.25 74.01698323633899 C 705.5625 74.00764245635254 704.9925000000001 73.4375 704.9833333333333 72.75 C 704.9741666666666 72.0625 705.5366666666666 70.93 706.2333333333333 70.23333333333333 C 706.9300000000001 69.53666666666666 707.725 68.98105741519934 708 68.99864610785039 Z " class="even" fill="#ffffff"></path><path d="M 44 83.28935986904202 C 46.910207375361644 83.46450457265946 47.55470088500753 83.92128044617026 47.82461087088661 86 C 48.00314684987424 87.375 47.90227700133859 89.4 47.60045565191848 90.5 C 47.29863430249837 91.6 46.0275594105994 93.7193350795153 44.77584478103187 95.209633510034 C 43.52413015146434 96.6999319405527 41.9375 97.9374319405527 41.25 97.959633510034 C 40.5625 97.9818350795153 38.65 97.1 37 96 C 35 94.66666666666667 34 93.16666666666667 34 91.5 C 34 90.125 34.45 88.1 35 87 C 35.55 85.9 37.0125 84.56771194106891 38.25 84.03935986904202 C 39.4875 83.51100779701511 42.075 83.17350779701512 44 83.28935986904202 Z " class="even" fill="#ffffff"></path><path d="M 21.5 84 C 23.166666666666664 84 24.166666666666668 84.66666666666667 24.5 86 C 24.833333333333332 87.33333333333333 24.5 88 23.5 88 C 22.675 88 21.325 87.775 20.5 87.5 C 19.675 87.225 19 86.325 19 85.5 C 19 84.56666666666666 19.944444444444443 84 21.5 84 Z " class="even" fill="#ffffff"></path><path d="M 696.25 83.98333333333333 C 697.2125 83.9925 699.0125 84.38646359466702 700.25 84.85880798814893 C 701.4875 85.33115238163083 703.2875 86.45615238163083 704.25 87.35880798814893 C 705.2125 88.26146359466702 706.009845055321 90.4625 706.0218779007132 92.25 C 706.0378902228098 94.62865814895775 705.3006009642356 96.0817913694242 703.2718779007132 97.670011630185 C 701.7418704706193 98.8678038982784 699.6039500908032 99.64439258816567 698.5 99.4033719752207 C 697.4 99.16321376838857 695.4984433067609 97.06170853480532 694.2743184594688 94.73336034503569 C 693.0501936121766 92.40501215526606 692.0301936121766 89.6 692.0076517928021 88.5 C 691.9851099734276 87.4 692.5366666666666 85.93 693.2333333333333 85.23333333333333 C 693.9300000000001 84.53666666666666 695.2875 83.97416666666666 696.25 83.98333333333333 Z " class="even" fill="#ffffff"></path><path d="M 719 86 C 720.1111111111111 86 721 86.66666666666667 721 87.5 C 721 88.325 719.9875 89.2542780812687 718.75 89.56506240281931 C 717.5125 89.87584672436994 716.275 89.88026402758051 716 89.57487863217614 C 715.725 89.26949323677177 715.8375 88.34021515550307 716.25 87.50981622935683 C 716.6625 86.67941730321057 717.9 86 719 86 Z " class="even" fill="#ffffff"></path><path d="M 127.5 94 C 129.975 94 133.35 94.675 135 95.5 C 136.65 96.325 138 97.675 138 98.5 C 138 99.325 136.875 101.125 135.5 102.5 C 134.125 103.875 132.1 105 131 105 C 129.89010061217152 105 127.6618156440174 103.33106135217838 125.99318405653514 101.25 C 124.33943528762946 99.1875 122.98943528762946 96.7125 122.99318405653514 95.75 C 122.99866172898643 94.3436023619948 123.88354893084376 94 127.5 94 Z " class="even" fill="#ffffff"></path><path d="M 613 95.06196413208207 C 613.275 95.00920229946405 614.287468799786 95.53617598367457 615.2499306661911 96.23301676366101 L 616.9998613323821 97.5 L 614.9999306661911 100.75 C 613.8999687997859 102.5375 611.7625 104.46276525652478 610.25 105.02836723672172 C 608.7375 105.59396921691868 606.7125 105.81896921691867 605.75 105.52836723672172 C 604.7875 105.23776525652478 603.55 104.1 603 103 C 602.45 101.9 602.225 100.1 602.5 99 C 602.8507725199389 97.59690992024429 604.1192061004581 96.82633106440005 606.75 96.41810672026067 C 608.8125 96.09806541640404 610.95 95.6835917321935 611.5 95.49705408868172 C 612.05 95.31051644516994 612.725 95.11472596470009 613 95.06196413208207 Z " class="even" fill="#ffffff"></path><path d="M 161 99 C 162.65 99 165.35538449176798 99.7875 167.01196553726214 100.75 C 168.66854658275633 101.7125 170.01854658275633 103.0625 170.01196553726214 103.75 C 170.00538449176798 104.4375 169.4375 105.00520698610822 168.75 105.01157108024049 C 168.0625 105.01793517437275 165.3625 104.34293517437276 162.75 103.51157108024049 C 159.8662538134402 102.5938895353231 158 101.41065669049256 158 100.5 C 158 99.5 159 99 161 99 Z " class="even" fill="#ffffff"></path><path d="M 579.4216720596108 100.23134302625641 C 580.4785916923968 100.37910436181538 581.4927105785495 100.95 581.6752695843945 101.5 C 581.8578285902395 102.05 581.1055761634146 103.0625 580.0035975247836 103.75 C 578.9016188861526 104.4375 576.1177524448578 105.3375 573.8172276552395 105.75 C 570.3371385198469 106.37400404239403 569.7171629409123 106.24800808478805 570.1267784294389 105 C 570.3975561448668 104.175 572.167303700009 102.70410436181538 574.0595507741994 101.73134302625641 C 575.9517978483897 100.75858169069744 578.3647524268249 100.08358169069744 579.4216720596108 100.23134302625641 Z " class="even" fill="#ffffff"></path><path d="M 51.75 102.05152823173714 C 53.5375 102.02318770428171 55.9 102.45 57 103 C 58.2 103.6 59 105 59 106.5 C 59 108.06737323591808 57.974110559509896 109.75900351982575 56.25 111.0345854018379 C 54.60064420493497 112.254860028411 51.999121538725035 113.05532854109099 49.75 113.0345854018379 C 47.6875 113.01556343082706 44.9875 112.61848639335733 43.75 112.15219198523852 C 42.5125 111.6858975771197 41.1625 110.5608975771197 40.75 109.65219198523852 L 40 108 L 40.75 106.45803890424291 C 41.1625 105.6099603015765 43.075 104.28314800585822 45 103.50956713598003 C 46.925 102.73598626610186 49.9625 102.07986875919255 51.75 102.05152823173714 Z " class="even" fill="#ffffff"></path><path d="M 688.5 103.99807513573037 C 691.25 104.0153497937154 694.5808297958189 104.5853497937154 695.9018439907086 105.26474180239703 C 697.2228581855984 105.94413381107867 698.7978581855984 107.28085820443911 699.4018439907086 108.23524045430912 C 700.2667556964303 109.60192220851842 700.0752073446829 110.39889078635562 698.5 111.9875114404552 C 697.312684920559 113.18493682352666 694.4682876986026 114.27879043038229 691.5 114.67946149190506 L 686.5 115.354381011518 L 683.7162937228791 112.427190505759 C 682.1852552704627 110.81723572759155 680.9402552704627 108.825 680.9496270562124 108 C 680.9589988419623 107.175 681.5366666666666 105.93 682.2333333333333 105.23333333333333 C 682.9300000000001 104.53666666666666 685.75 103.98080047774533 688.5 103.99807513573037 Z " class="even" fill="#ffffff"></path><path d="M 122.06380699620146 107.25 C 123.67871314829065 107.6625 127.36250000000001 109.53561748175441 130.25 111.41248329278758 C 133.1375 113.28934910382074 136.75454545454545 116.10184910382074 138.2878787878788 117.66248329278758 C 139.82121212121214 119.22311748175441 141.05871212121212 121.2875 141.0378787878788 122.25 C 141.01704545454547 123.2125 140.1 124.45 139 125 C 137.9 125.55 135.425 126 133.5 126 C 131.575 126 128.7625 125.36775630999401 127.25 124.59501402220891 C 125.7375 123.82227173442382 123.4979869986266 122.13477173442382 122.27330444139244 120.84501402220891 C 121.04862188415828 119.55525630999401 119.68695075509011 117.15 119.24736859901873 115.5 C 118.80778644294736 113.85 118.60101259261141 111.15 118.78787115382775 109.5 L 119.12761399240293 106.5 L 122.06380699620146 107.25 Z " class="even" fill="#ffffff"></path><path d="M 619.25 108.02664816358327 C 619.6625 108.01199167361247 620.2578490607032 108.7875 620.5729979126738 109.75 C 620.8881467646444 110.7125 621.5631467646443 112.2875 622.0729979126738 113.25 C 622.5828490607032 114.2125 623.0180478317567 115.3375 623.0401062927926 115.75 C 623.0621647538286 116.1625 621.5996647538286 118.08846173583711 619.7901062927926 120.02991496852692 C 617.9805478317567 121.97136820121673 615.825 124.10776178738973 615 124.77745627113362 C 614.175 125.44715075487748 611.7 126.40178274041628 609.5 126.89886068344205 C 607.1226809582021 127.4360028921752 604.1815717214607 127.43700031253573 602.25 126.90131938083537 C 599.6903518348894 126.19145461180958 599 125.46896012700813 599 123.5 C 599 121.82645512243845 600.2760078387574 119.92560834083002 602.8598824186382 117.75 C 604.9828177488893 115.9625 609.3703177488892 113.04949167361248 612.6098824186382 111.27664816358327 C 615.8494470883873 109.50380465355408 618.8375 108.04130465355409 619.25 108.02664816358327 Z " class="even" fill="#ffffff"></path><path d="M 34.75 113.96740526445389 C 35.4375 113.98533236900425 36.67847941269453 115.0125 37.507732028210064 116.25 C 38.3369846437256 117.4875 39.0119846437256 118.8375 39.007732028210064 119.25 C 39.00347941269453 119.6625 37.86624037567346 120.7875 36.480534168163246 121.75 L 33.9610683363265 123.5 L 31.94793943261714 121.5 C 30.84071853557699 120.4 29.960853353053757 119.05 29.9926834714544 118.5 C 30.024513589855037 117.95 30.826681220850787 116.69783236900425 31.77527820700051 115.71740526445389 C 32.72387519315023 114.73697815990353 34.0625 113.94947815990352 34.75 113.96740526445389 Z " class="even" fill="#ffffff"></path><path d="M 65 114.15789473684211 C 66.375 114.15789473684211 66.9375 114.34736842105264 66.25 114.57894736842105 L 65 115 L 63.75 114.57894736842105 C 63.0625 114.34736842105264 63.625 114.15789473684211 65 114.15789473684211 Z " class="even" fill="#ffffff"></path><path d="M 187.75 115.00938406163473 C 188.7125 115.01454529553384 191.75 116.31664037306965 194.5 117.90292867838099 C 197.25 119.48921698369233 200.625 121.96592532470692 202 123.40672499174676 C 203.96396987729545 125.46467927922572 204.24044984003686 126.29154978014175 203.2894795974637 127.2631803750005 C 202.3305182509088 128.2429756849763 200.9797488954704 127.9366452955689 196.7894795974637 125.78909634790033 C 193.88026581885867 124.29809933924551 190.0375 121.7105993392455 188.25 120.03909634790033 C 186.4625 118.36759335655515 185.225 116.55 185.5 116 C 185.775 115.45 186.7875 115.00422282773563 187.75 115.00938406163473 Z " class="even" fill="#ffffff"></path><path d="M 706 116.03442201735118 C 706.825 115.96651202163116 708.175 116.6284344954489 709 117.50536084805725 C 710.242345610506 118.82590097520885 710.2852880087551 119.52062744862403 709.25 121.54988619912714 C 708.5625 122.89744878960721 707.325 124 706.5 124 C 705.675 124 704.325 123.775 703.5 123.5 C 702.6111111111111 123.20370370370371 702 121.77777777777777 702 120 C 702 118.35 702.5625 116.81052631578947 703.25 116.57894736842105 C 703.9375 116.34736842105264 705.175 116.10233201307119 706 116.03442201735118 Z " class="even" fill="#ffffff"></path><path d="M 551.75 116.99506857246237 C 554.5138876508868 116.99926239143852 554.8680786892542 117.26175280336867 554.1180140543515 118.75 C 553.632921784245 119.7125 551.495421784245 121.66543388631787 549.3680140543515 123.08985308070638 C 547.2406063244582 124.51427227509487 544.2625 126.42677227509488 542.75 127.33985308070638 C 541.2375 128.25293388631786 539.1 129 538 129 C 536.9 129 535.9884286117581 128.4375 535.9742858039067 127.75 C 535.9601429960554 127.0625 536.9726429960555 125.55157391775553 538.2242858039067 124.39238648390116 C 539.475928611758 123.2331990500468 542.3 121.09347990765488 544.5 119.63745505636354 C 546.7742888622242 118.13226364617555 549.9021402994427 116.99226469978144 551.75 116.99506857246237 Z " class="even" fill="#ffffff"></path><path d="M 173.25 120.22949201836056 C 175.0375 120.90571262845887 179.08344172684215 123.94321262845887 182.24098161520476 126.97949201836056 C 187.08996231719337 131.64225501994332 187.9809852441075 133.04380999722906 187.97566884068772 136 C 187.97220692634068 137.925 187.63876519949855 140.07024624469116 187.23468722548293 140.76721387709148 C 186.6925995038302 141.7022254842794 184.92708981060392 141.02474429607477 180.5 138.18290413287875 C 177.2 136.06456614116144 172.80817020328715 132.56931989647026 170.74037822952698 130.41569025578727 C 168.65250415773724 128.2411448740082 166.98503486087935 125.49951842188528 166.99037822952698 124.25 C 166.99567020328715 123.0125 167.675 121.325 168.5 120.5 C 169.75281587568986 119.24718412431014 170.53556560267197 119.2026072719365 173.25 120.22949201836056 Z " class="even" fill="#ffffff"></path><path d="M 568.25 119.98235319913245 C 568.6625 119.9920589396096 569.675 120.225 570.5 120.5 C 571.325 120.775 572 122.125 572 123.5 C 572 124.875 571.325 127.575 570.5 129.5 C 569.4686363948508 131.90651507868148 566.7349240915545 134.57032060625343 561.75 138.02624408872492 C 557.7625 140.79067833752362 554.05 143.0510950041903 553.5 143.04939223687308 C 552.95 143.04768946955585 552.1625 141.68587962962962 551.75 140.02314814814815 C 551.3013810265243 138.21482598963192 551.4583901995768 136.09585692042708 552.1407242640569 134.75 C 552.7681226092881 133.5125 554.9102538044476 130.925 556.9010158088557 129 C 558.8917778132638 127.075 562.0909518944384 124.2545589396096 564.010291544799 122.73235319913245 C 565.9296311951595 121.2101474586553 567.8375 119.97264745865529 568.25 119.98235319913245 Z " class="even" fill="#ffffff"></path><path d="M 99.5 129.43528933671695 C 102.25 129.6072028613184 105.50551277026763 130.3670910206213 106.73447282281694 131.12392969072343 C 107.96343287536625 131.88076836082556 109.20093287536626 133.7375 109.48447282281694 135.25 C 109.8141417065562 137.00856767675518 109.18882809916333 139.52109194334486 107.75 142.21915116758345 C 106.5125 144.53968430975434 104.375 147.036484434805 103 147.76759588991823 C 101.3567615328799 148.6413344112231 97.9297154013603 148.97867336602062 93 148.75193908767943 C 87.52923498103046 148.50032010817242 84.48538250948478 147.8108010178012 81.75 146.20349436534465 C 79.21316014749256 144.71285107980282 77.98881129834807 143.27210391150447 77.9654145981621 141.75 C 77.94639262715125 140.5125 78.84639262715125 138.2625 79.9654145981621 136.75 C 81.08443656917295 135.2375 83.6875 133.23541784080086 85.75 132.30092853511306 C 87.8125 131.36643922942525 90.625 130.26905107012232 92 129.86228818110658 C 93.375 129.4555252920908 96.75 129.26337581211547 99.5 129.43528933671695 Z " class="even" fill="#ffffff"></path><path d="M 640 129.97861170003335 C 641.925 130.0048920770734 645.9209891491464 130.80795550790046 648.879975886992 131.76319710187127 C 651.8389626248377 132.71843869584208 656.0014626248377 134.9625 658.129975886992 136.75 C 660.2584891491464 138.5375 662.0146676309957 140.7875 662.0325947355461 141.75 C 662.0505218400965 142.7125 661.2630218400965 144.26030846498895 660.2825947355461 145.1895743666421 C 659.3021676309958 146.11884026829526 656.8125 147.58134026829526 654.75 148.4395743666421 C 652.661046383973 149.30881617180054 648.1208529344467 150 644.5 150 C 640.925 150 637.1 149.55 636 149 C 634.9 148.45 633.1 146.2 632 144 C 630.75 141.5 630.1875 138.875 630.5 137 C 630.7848554923598 135.29086704584063 632.1832947920205 133.12454025093967 633.75 131.9654145981621 C 635.3345008240997 130.79312287237545 637.9833625875095 129.95108027584982 640 129.97861170003335 Z " class="even" fill="#ffffff"></path><path d="M 213.75 130.983016763661 C 215.2625 130.97367598367458 217.35504193204952 131.53617598367458 218.40009318233226 132.233016763661 C 219.70494286065633 133.1030912861903 220.01821355155874 133.93145174955913 219.40009318233226 134.8772490120806 C 218.7826581016349 135.8219977021117 217.5579038686778 136.04248543207862 215.5 135.57936758353935 C 213.85 135.20804584119733 211.9375 134.47578378576108 211.25 133.95211857145875 C 210.5625 133.42845335715643 210.225 132.55 210.5 132 C 210.775 131.45 212.2375 130.99235754364744 213.75 130.983016763661 Z " class="even" fill="#ffffff"></path><path d="M 50.40112869064784 132.25092322878328 C 52.0988319465865 132.39667975686714 54.10919375970795 133.5370321028748 55.24755969203257 135 C 56.82120755061463 137.02236928663538 56.98338635423087 137.92986764202814 56.09643100138473 139.75 C 55.49339395062313 140.9875 54.1 142.225 53 142.5 C 51.9 142.775 49.095562641730034 141.9875 46.76791698162229 140.75 C 44.44027132151455 139.5125 42.40343844996715 137.825 42.24162171151694 137 C 42.079804973066736 136.175 43.19674233133671 134.71291545295247 44.72370472989465 133.75092322878328 C 46.25066712845259 132.78893100461408 48.805507910791526 132.11393100461407 50.40112869064784 132.25092322878328 Z " class="even" fill="#ffffff"></path><path d="M 525.5 132.0300545769141 C 526.05 132.0303686115801 527.175 132.48228622097247 528 133.03431593111935 C 529.2948145372833 133.90071119622294 529.2264193830443 134.2466184067215 527.5 135.56305655863667 C 526.4 136.4018341936243 524.15 136.95578277315323 522.5 136.79405340203436 C 520.85 136.63232403091547 519.5 136.0632898361993 519.5 135.52953296933174 C 519.5 134.99577610246422 520.625 133.98990991354287 522 133.2942747717288 C 523.375 132.5986396299147 524.95 132.02974054224808 525.5 132.0300545769141 Z " class="even" fill="#ffffff"></path><path d="M 690.5 134.02267665769068 C 692.15 134.00169926492975 694.5125 134.6630153562744 695.75 135.49226797178994 C 696.9875 136.32152058730549 698 137.675 698 138.5 C 698 139.325 696.425 140.9 694.5 142 C 692.575 143.1 689.9875 144.0075 688.75 144.01666666666665 C 687.5125 144.02583333333334 685.9300000000001 143.46333333333334 685.2333333333333 142.76666666666665 C 684.5366666666666 142.07 683.9741666666666 140.2625 683.9833333333333 138.75 C 683.9928461937988 137.18037802320632 684.7511496511313 135.58382389867108 685.75 135.03040868590074 C 686.7125 134.49713346314616 688.85 134.04365405045164 690.5 134.02267665769068 Z " class="even" fill="#ffffff"></path><path d="M 148.75 134.96740526445387 C 149.4375 134.98533236900425 151.6875 135.8406840657566 153.75 136.8681868127924 C 155.8125 137.8956895598282 160.3125 141.04568955982822 163.75 143.8681868127924 C 167.1875 146.69068406575659 170.39817572452193 150.0125 170.8848349433821 151.25 C 171.45946174238273 152.71118810906086 171.37181597672284 153.9538386622427 170.6348349433821 154.79452535106986 C 170.01067572452195 155.5065142941583 167.925 156.06367330023437 166 156.03265647568335 C 164.075 156.00163965113234 160.25 155.3767016384659 157.5 154.64390533642464 C 154.75 153.91110903438337 151.15 152.62075184614577 149.5 151.77644491811887 C 147.85 150.93213799009197 145.825 149.44478637838282 145 148.47121911432077 C 144.08105357578413 147.38678741002568 143.5958986568743 145.11267127259157 143.74756406518514 142.60054840801308 C 143.8847474289674 140.32830011728282 144.77648186805368 137.7051994416898 145.74756406518514 136.71740526445387 C 146.7114038293333 135.73697815990352 148.0625 134.94947815990352 148.75 134.96740526445387 Z " class="even" fill="#ffffff"></path><path d="M 590.75 135.11600135047522 C 590.8875 135.05220060771384 591.9 135.45 593 136 C 594.2155703035467 136.60778515177333 595.2652708077263 138.47080568085002 595.6763405539737 140.75 C 596.0483278586593 142.8125 596.2765459601284 145.4 596.1834918905718 146.5 C 596.090437821015 147.6 594.9985845717268 149.52093607919792 593.757151336598 150.76874684266204 C 592.5157181014691 152.01655760612613 589.3625 153.92905760612615 586.75 155.01874684266204 C 583.294153573432 156.4602008729595 580.160939658807 156.93188665402988 575.25 156.75 L 568.5 156.5 L 568.1968172279655 154 C 567.9790356760852 152.20420574675944 568.9649237215484 150.41625361118076 571.6968172279655 147.65259320941945 C 573.7885677525845 145.53651947460014 577.975 142.10574338199066 581 140.02864633695393 C 584.025 137.9515492919172 587.4 136.0225829553923 588.5 135.7420544780097 C 589.6 135.4615260006271 590.6125 135.1798020932366 590.75 135.11600135047522 Z " class="even" fill="#ffffff"></path><path d="M 228.75 141.0264442138361 C 229.1625 141.04098853144598 233.55 143.06239894789823 238.5 145.51846736150782 C 243.45 147.9745357751174 249.4125 151.78763587889114 251.75 153.99202314767172 C 254.0875 156.19641041645227 255.8875 158.21979977877618 255.75 158.48844395283595 C 255.6125 158.7570881268957 251.45 156.88466694639345 246.5 154.3275079961643 C 241.55 151.77034904593512 235.8125 148.62554926715893 233.75 147.33906404332834 C 231.6875 146.05257881949777 229.55 145 229 145 C 228.45 145 227.775 144.55 227.5 144 L 227 143 L 227.5 142 C 227.775 141.45 228.3375 141.01189989622625 228.75 141.0264442138361 Z " class="even" fill="#ffffff"></path><path d="M 509.75 143.0629209441961 C 510.9875 143.02831442488824 512.0095564747171 143.5625 512.0212366104824 144.25 C 512.0329167462478 144.9375 510.5704167462478 146.27007467365922 508.77123661048245 147.21127705257607 C 506.9720564747171 148.15247943149294 500.775 151.4319911292662 495 154.4990808254056 C 489.225 157.566170521545 484.05 159.92463955682706 483.5 159.74012312603244 C 482.95 159.55560669523783 485.06365228933066 157.40109499746453 488.1970050874014 154.95231935320294 C 491.3303578854722 152.50354370894132 496.9553578854722 148.84081442488824 500.6970050874014 146.8129209441961 C 504.43865228933066 144.78502746350392 508.5125 143.09752746350392 509.75 143.0629209441961 Z " class="even" fill="#ffffff"></path><path d="M 72.25 149.98333333333335 C 73.2125 149.9925 74.45 150.9 75 152 L 76 154 L 75 156 C 74.45 157.1 73.2125 158.0075 72.25 158.01666666666665 C 71.2875 158.02583333333334 69.93 157.46333333333334 69.23333333333333 156.76666666666665 C 68.53666666666666 156.07 67.96666666666667 154.825 67.96666666666667 154 C 67.96666666666667 153.175 68.53666666666666 151.93 69.23333333333333 151.23333333333335 C 69.93 150.53666666666666 71.2875 149.97416666666666 72.25 149.98333333333335 Z " class="even" fill="#ffffff"></path><path d="M 670 152 C 671.3913043478261 152.69565217391303 671.9239130434783 153.83695652173913 671.75 155.75 C 671.5401635375536 158.05820108691097 671.0355466822091 158.5 668.6089864957007 158.5 C 666.8921113926348 158.5 665.267576053056 157.76382164658776 664.6089864957007 156.68735035064697 C 663.7110460737418 155.21965764445648 663.9281870588686 154.50601254634216 665.75 152.93735035064697 C 667.4795664056977 151.4481165361822 668.4626076393798 151.23130381968988 670 152 Z " class="even" fill="#ffffff"></path><path d="M 58.5 155.93481052890778 C 59.05 155.93481052890778 60.2875 156.84947815990353 61.25 157.96740526445387 C 62.57482030737674 159.50616114006448 62.75704017564385 160.4859196487123 62 162 C 61.4 163.2 60 164 58.5 164 C 57 164 55.6 163.2 55 162 C 54.24295982435615 160.4859196487123 54.42517969262326 159.50616114006448 55.75 157.96740526445387 C 56.7125 156.84947815990353 57.95 155.93481052890778 58.5 155.93481052890778 Z " class="even" fill="#ffffff"></path><path d="M 681.75 157.97222222222223 C 682.9875 157.9875 684.45 158.9 685 160 C 685.55 161.1 685.775 162.675 685.5 163.5 C 685.225 164.325 684.1 165.225 683 165.5 C 681.9 165.775 680.3049635920186 165.4375 679.4554746489301 164.75 C 678.6059857058417 164.0625 677.9184857058417 162.6 677.9276968711524 161.5 C 677.936908036463 160.4 678.2944444444445 159.15 678.7222222222222 158.72222222222223 C 679.15 158.29444444444445 680.5125 157.95694444444445 681.75 157.97222222222223 Z " class="even" fill="#ffffff"></path><path d="M 82 170.00758074630699 C 83.375 170.0202553878069 85.175 170.4451539107907 86 170.95179968627102 L 87.5 171.87297382350792 L 86 174.45371547832875 C 85.175 175.8731233884802 83.26383886983491 177.58920427819092 81.75297526629979 178.26722856657477 C 79.3601877289591 179.3410303733449 78.74345758828737 179.24209391563625 76.97038053075369 177.5 C 75.85081702973844 176.4 74.94947815990352 174.9375 74.96740526445389 174.25 C 74.98533236900425 173.5625 76.0125 172.32152058730549 77.25 171.49226797178994 C 78.4875 170.6630153562744 80.625 169.9949061048071 82 170.00758074630699 Z " class="even" fill="#ffffff"></path><path d="M 658.25 170.983016763661 C 659.2125 170.99235754364744 661.2375 172.0977335116308 662.75 173.439407803624 C 665.0111967486033 175.4452190741957 665.3028813800532 176.20064228089961 664.3910135042993 177.689407803624 C 663.6838187196926 178.84401280854584 662.0925449474419 179.5 659.9989340370947 179.5 C 657.558995920578 179.5 656.1744907454568 178.77371316399606 654.6079205327953 176.67197002131164 L 652.5 173.84394004262327 L 654.5 172.40498678497266 C 655.6 171.6135624932648 657.2875 170.97367598367458 658.25 170.983016763661 Z " class="even" fill="#ffffff"></path><path d="M 98 185 C 99.1 185 100.9 185.9 102 187 C 103.1 188.1 103.98568848265829 189.5625 103.96819662812953 190.25 C 103.95070477360079 190.9375 103.38820477360079 192.2699703646785 102.71819662812953 193.2110452548411 C 102.04818848265829 194.1521201450037 100.2625 194.9396201450037 98.75 194.9610452548411 C 97.2375 194.9824703646785 94.86203542923035 194.4375 93.47118984273409 193.75 C 92.08034425623784 193.0625 90.95534425623784 191.9375 90.97118984273409 191.25 C 90.98703542923035 190.5625 92.125 188.875 93.5 187.5 C 94.875 186.125 96.9 185 98 185 Z " class="even" fill="#ffffff"></path><path d="M 641.75 185.98004198334155 C 642.4375 185.99101889250372 644.4199174567132 187.2375 646.1553721260293 188.75 C 648.3520599527318 190.66447831892782 649.1116251173429 192.03169561522776 648.6553721260293 193.25 C 648.2949174567132 194.2125 646.2186348157202 195.5625 644.0414107016003 196.25 L 640.0828214032006 197.5 L 638.0088159660542 195.5 C 636.8681129756236 194.4 635.9494781599035 192.7125 635.9674052644539 191.75 C 635.9853323690043 190.7875 637.0125 189.0910188925037 638.25 187.98004198334155 C 639.4875 186.86906507417942 641.0625 185.9690650741794 641.75 185.98004198334155 Z " class="even" fill="#ffffff"></path><path d="M 80.75 193.97222222222223 C 81.9875 193.9875 83.45 194.9 84 196 C 84.55 197.1 84.79218947644411 198.5625 84.53819883654246 199.25 C 84.28420819664082 199.9375 83.38420819664081 200.8375 82.53819883654246 201.25 C 81.69218947644411 201.6625 80.1 201.55 79 201 C 77.9 200.45 76.9875 198.9875 76.97222222222223 197.75 C 76.95694444444445 196.5125 77.29444444444444 195.15 77.72222222222223 194.72222222222223 C 78.15 194.29444444444445 79.5125 193.95694444444445 80.75 193.97222222222223 Z " class="even" fill="#ffffff"></path><path d="M 658.75 194.98333333333335 C 659.7125 194.97416666666666 661.0699999999999 195.53666666666666 661.7666666666667 196.23333333333335 C 662.4633333333334 196.93 663.0258333333334 198.5125 663.0166666666667 199.75 C 663.0074999999999 200.9875 662.325 202.225 661.5 202.5 C 660.675 202.775 659.325 203 658.5 203 C 657.675 203 656.55 202.1 656 201 L 655 199 L 656 197 C 656.55 195.9 657.7875 194.9925 658.75 194.98333333333335 Z " class="even" fill="#ffffff"></path><path d="M 101.25 202.07894736842104 C 102.2125 202.03552631578947 104.125 203.125 105.5 204.5 C 107.14402752373114 206.14402752373115 107.77565486494706 207.5991807333882 107.3447653362908 208.75 C 106.98438627125074 209.7125 106.19688627125073 211.08253640798145 105.5947653362908 211.79452535106986 C 104.99264440133086 212.5065142941583 102.925 213.07249370685284 101 213.05225737927992 C 99.075 213.03202105170703 96.4875 212.3369846437256 95.25 211.50773202821006 C 94.0125 210.67847941269451 92.98533236900425 209.2125 92.96740526445389 208.25 C 92.94947815990352 207.2875 93.73697815990353 205.77121951546633 94.71740526445389 204.88048781214738 C 95.69783236900425 203.98975610882843 97.175 203.0127824246179 98 202.70943518056845 C 98.825 202.40608793651896 100.2875 202.12236842105264 101.25 202.07894736842104 Z " class="even" fill="#ffffff"></path><path d="M 637.5 202.97062816875172 C 638.6 202.98275927726775 641.075 203.83524707266005 643 204.86504549184576 C 645.0762717099807 205.97576825794346 646.5 207.49474338156978 646.5 208.59919404389848 C 646.5 209.78412335724622 644.8640116446139 211.3320654529139 642 212.85701128787326 C 638.2999607075416 214.82710087142348 637.1000196462292 215.0527802901677 635.25 214.12652037097558 C 634.0125 213.50693416693903 632.4375 211.87781380009892 631.75 210.50625288910874 C 630.6397308322041 208.2912684655067 630.7794616644084 207.72947068387438 633 205.4805386930155 C 634.375 204.0879567961544 636.4 202.9584970602357 637.5 202.97062816875172 Z " class="even" fill="#ffffff"></path><path d="M 87.5 211.92769687115236 C 88.6 211.9184857058417 90.0625 212.60598570584168 90.75 213.45547464893014 C 91.4375 214.30496359201857 91.79513289884025 215.7875 91.54473977520055 216.75 C 91.29434665156087 217.7125 90.28184665156087 218.78384881512275 89.29473977520055 219.13077514471723 C 88.30763289884025 219.47770147431174 86.7125 219.36520147431173 85.75 218.88077514471723 C 84.7875 218.39634881512276 83.9875 216.9875 83.97222222222223 215.75 C 83.95694444444445 214.5125 84.29444444444444 213.15 84.72222222222223 212.72222222222223 C 85.15 212.29444444444445 86.4 211.936908036463 87.5 211.92769687115236 Z " class="even" fill="#ffffff"></path><path d="M 652 212.91094929786024 C 652.825 212.91094929786024 654.0625 213.60598570584168 654.75 214.45547464893014 C 655.4375 215.30496359201857 655.8875 216.73926751726603 655.75 217.6428167050356 C 655.6125 218.54636589280517 654.7125 219.78386589280518 653.75 220.3928167050356 L 652 221.5 L 650.25 220.3928167050356 C 649.2875 219.78386589280518 648.3875 218.54636589280517 648.25 217.6428167050356 C 648.1125 216.73926751726603 648.5625 215.30496359201857 649.25 214.45547464893014 C 649.9375 213.60598570584168 651.175 212.91094929786024 652 212.91094929786024 Z " class="even" fill="#ffffff"></path><path d="M 116.25 223.01531277451704 C 116.9375 223.02373480050144 118.08498555861028 223.36123480050145 118.79996790802286 223.76531277451704 C 119.53738244112024 224.18206847595286 119.97012648922606 225.79823214431747 119.79996790802286 227.5 C 119.56565670239222 229.84336273345062 118.9528022778755 230.57230497220831 117 230.83034207419394 C 115.42429873445094 231.03855024394252 114.03157159923252 230.48397100327196 113.23301676366101 229.33034207419394 C 112.53617598367457 228.32365393338728 111.97367598367457 227.1625 111.98301676366101 226.75 C 111.99235754364746 226.3375 112.675 225.325 113.5 224.5 C 114.325 223.675 115.5625 223.00689074853267 116.25 223.01531277451704 Z " class="even" fill="#ffffff"></path><path d="M 623.75 224.97222222222223 C 624.9875 224.9875 626.45 225.9 627 227 C 627.7777777777778 228.55555555555554 627.5555555555555 229.44444444444446 626 231 C 624.4444444444445 232.55555555555554 623.5555555555555 232.77777777777777 622 232 C 620.9 231.45 619.9875 229.9875 619.9722222222222 228.75 C 619.9569444444445 227.5125 620.2944444444445 226.15 620.7222222222222 225.72222222222223 C 621.15 225.29444444444445 622.5125 224.95694444444445 623.75 224.97222222222223 Z " class="even" fill="#ffffff"></path><path d="M 100.75 225.99226797178994 C 101.4375 225.99652058730547 102.675 226.225 103.5 226.5 C 104.325 226.775 105.0075 228.0125 105.01666666666667 229.25 C 105.02583333333334 230.4875 104.46333333333334 232.07 103.76666666666667 232.76666666666665 C 103.07 233.46333333333334 101.4875 234.02583333333334 100.25 234.01666666666665 C 99.0125 234.0075 97.325 233.775 96.5 233.5 C 95.675 233.225 95 232.1 95 231 C 95 229.9 96.0125 228.32152058730549 97.25 227.49226797178994 C 98.4875 226.6630153562744 100.0625 225.98801535627442 100.75 225.99226797178994 Z " class="even" fill="#ffffff"></path><path d="M 638.75 226.95547464893014 C 639.4375 226.97996359201855 641.1952290079424 228.0125 642.6560644620943 229.25 C 644.462700835445 230.78043418111707 645.1023148966743 232.0596623035756 644.6560644620943 233.25 C 644.149904213736 234.60014238052057 643.0289172098356 234.94287748293152 639.75 234.75 C 636.0381353815839 234.5316550224461 635.4643074322787 234.18344977553892 635.2181129172943 232 C 635.0630750218062 230.625 635.5130750218062 228.91746359201855 636.2181129172943 228.20547464893014 C 636.9231508127824 227.4934857058417 638.0625 226.9309857058417 638.75 226.95547464893014 Z " class="even" fill="#ffffff"></path><path d="M 365.75 237.97222222222223 C 366.4375 237.9875 367 238.675 367 239.5 C 367 240.33333333333334 366.1111111111111 241 365 241 C 363.9 241 362.9875 240.6625 362.97222222222223 240.25 C 362.95694444444445 239.8375 363.2944444444445 239.15 363.72222222222223 238.72222222222223 C 364.15 238.29444444444445 365.0625 237.95694444444445 365.75 237.97222222222223 Z " class="even" fill="#ffffff"></path><path d="M 375 238 C 375.55 238 376.225 238.45 376.5 239 C 376.775 239.55 376.77941730321055 240.3375 376.50981622935683 240.75 L 376.01963245871366 241.5 L 374.50981622935683 240.75 C 373.6794173032106 240.3375 373.225 239.55 373.5 239 C 373.775 238.45 374.45 238 375 238 Z " class="even" fill="#ffffff"></path><path d="M 124.19850771212 247.45263919188503 C 124.582686953786 248.02868763634825 124.13268695378599 249.30216763099574 123.19850771212 250.28259473554613 C 122.264328470454 251.26302184009648 120.375 252.0436310915638 119 252.01728196102906 C 117.625 251.9909328304943 115.825 251.54516583085746 115 251.0266886285027 C 113.75584860609602 250.24479270848198 113.72607447522986 249.86363163401506 114.82543896962854 248.79200140301975 C 115.55443040292423 248.0814006313589 117.80443040292423 247.25368763634827 119.82543896962854 246.95263919188503 C 121.90334613078888 246.6431151607096 123.80351245550477 246.86037293055128 124.19850771212 247.45263919188503 Z " class="even" fill="#ffffff"></path><path d="M 107 248 C 108.1 248 109.225 248.675 109.5 249.5 C 109.775 250.325 109.55 251.9 109 253 C 108.4 254.2 107 255 105.5 255 C 104.125 255 102.775 254.55 102.5 254 C 102.225 253.45 102.675 251.875 103.5 250.5 C 104.325 249.125 105.9 248 107 248 Z " class="even" fill="#ffffff"></path><path d="M 619.234679730953 248.24353348558398 C 621.5806058789288 248.65247690265517 624.0625 249.43997690265516 624.75 249.99353348558398 C 625.4375 250.5470900685128 625.775 251.45 625.5 252 C 625.225 252.55 623.3125 253.0075 621.25 253.01666666666665 C 619.1875 253.02583333333334 616.9300000000001 252.46333333333334 616.2333333333333 251.76666666666665 C 615.5366666666666 251.07 614.9672725455955 249.825 614.9680130642863 249 C 614.9691036557975 247.78498948383947 615.7797404098297 247.64126614951596 619.234679730953 248.24353348558398 Z " class="even" fill="#ffffff"></path><path d="M 632.75 248.98333333333335 C 632.8875 248.9925 633.9 249.45 635 250 C 636.2 250.6 637 252 637 253.5 C 637 254.875 636.3245611469825 256.3375 635.4990247710724 256.75 C 634.5551832170183 257.2216141558488 633.2439507270193 256.75763774893005 631.9664300355263 255.5 C 630.8490393068861 254.4 629.9419781599036 253.05 629.9507385977872 252.5 C 629.9594990356709 251.95 630.5366666666666 250.93 631.2333333333333 250.23333333333335 C 631.9300000000001 249.53666666666666 632.6125 248.97416666666666 632.75 248.98333333333335 Z " class="even" fill="#ffffff"></path><path d="M 364.75 253.97222222222223 C 365.4375 253.9875 366 254.675 366 255.5 C 366 256.325 365.325 257 364.5 257 C 363.675 257 362.7850884003553 256.6625 362.5224186674561 256.25 C 362.259748934557 255.8375 362.37224893455704 255.15 362.7724186674561 254.72222222222223 C 363.17258840035527 254.29444444444445 364.0625 253.95694444444445 364.75 253.97222222222223 Z " class="even" fill="#ffffff"></path><path d="M 375.75 253.97222222222223 C 376.4375 253.9875 377 254.675 377 255.5 C 377 256.325 376.325 257 375.5 257 C 374.675 257 373.7850884003553 256.6625 373.5224186674561 256.25 C 373.259748934557 255.8375 373.37224893455704 255.15 373.7724186674561 254.72222222222223 C 374.17258840035527 254.29444444444445 375.0625 253.95694444444445 375.75 253.97222222222223 Z " class="even" fill="#ffffff"></path><path d="M 116 272.95761913724004 C 116.825 272.96259527842466 118.07 273.53666666666663 118.76666666666667 274.23333333333335 C 119.46333333333334 274.93 120.02583333333334 276.5125 120.01666666666667 277.75 C 120.0075 278.9875 119.325 280.225 118.5 280.5 C 117.675 280.775 115.65 281 114 281 C 112.31481322352671 281 110.67129669411833 280.33520615523435 110.25 279.4831446028909 C 109.75898268504558 278.4900749172073 110.36327561681861 277.0999545549002 112 275.4574304067976 C 113.375 274.07755806735634 115.175 272.9526429960555 116 272.95761913724004 Z " class="even" fill="#ffffff"></path><path d="M 362.75 272.97222222222223 C 363.65376704598276 272.99230593435516 363.84005869926943 274.31568522526544 363.42256615497297 277.75 C 363.1049775402081 280.3625 362.19962039735094 283.175 361.4106613930682 284 C 360.15669352248835 285.3112512660514 359.9741931350905 284.8079213088551 359.96031746031747 280 C 359.9515873015873 276.975 360.2944444444445 274.15 360.72222222222223 273.72222222222223 C 361.15 273.2944444444445 362.0625 272.95694444444445 362.75 272.97222222222223 Z " class="even" fill="#ffffff"></path><path d="M 379.5 273 C 380.6515151515151 273 381 274.27777777777777 381 278.5 C 381 282.40717239163513 380.63799372537164 283.9056037551789 379.75 283.6740517656841 C 379.0625 283.49478023681036 378.091683865335 281.80728023681036 377.59263081185554 279.9240517656841 C 377.0935777583761 278.04082329455787 376.98107775837616 275.7125 377.34263081185554 274.75 C 377.704183865335 273.7875 378.675 273 379.5 273 Z " class="even" fill="#ffffff"></path><path d="M 623.5 274.96449019401217 C 624.6 274.9755153562744 626.5125 275.6630153562744 627.75 276.49226797178994 C 628.9875 277.3215205873055 630.0104166666666 278.7875 630.0231481481482 279.75 C 630.0380216493569 280.8744366913796 628.9656274060076 281.7680985608373 627.0231481481482 282.25 C 625.3419023339272 282.6670931422723 623.1122483793927 282.55612418969633 622 282 C 620.9 281.45 619.9875 279.9875 619.9722222222222 278.75 C 619.9569444444445 277.5125 620.2944444444445 276.15 620.7222222222222 275.72222222222223 C 621.15 275.2944444444445 622.4 274.95346503174994 623.5 274.96449019401217 Z " class="even" fill="#ffffff"></path><path d="M 136.5 309.4351144638483 C 138.15 309.7827094034686 139.95 310.4626003541353 140.5 310.9459832431078 C 141.13163728822684 311.5011153470456 138.55309830581467 315.1788164166114 133.5 320.9298957077076 C 129.1 325.9376646742651 125.1625 330.0270708990771 124.75 330.01746509617874 C 124.3375 330.00785929328043 124 329.775 124 329.5 C 124 329.225 124.74112560562992 327.5375 125.64694579028871 325.75 C 126.5527659749475 323.9625 128.15171542227486 320.025 129.2001667843495 317 C 130.24861814642412 313.975 131.64499254079422 310.8932028245212 132.30322099406078 310.1515618322694 C 133.08253692062198 309.2734888255736 134.5464665839883 309.0235760821606 136.5 309.4351144638483 Z " class="even" fill="#ffffff"></path><path d="M 604 311.0942601429381 C 605.375 311.05926111629094 606.9972895148967 311.36123480050145 607.6050878108815 311.76531277451704 C 608.2128861068662 312.1693907485327 609.2894252822107 314.3 609.9973970894248 316.5 C 610.7053688966388 318.7 612.345579381742 322.8625 613.6423092785433 325.75 C 614.9390391753445 328.6375 615.6625 331.0196064900065 615.25 331.0435699777922 C 614.8375 331.06753346557787 611.0125 327.2425334655779 606.75 322.5435699777922 C 602.4875 317.84460649000647 599 313.55 599 313 C 599 312.45 599.5625 311.81052631578945 600.25 311.57894736842104 C 600.9375 311.34736842105264 602.625 311.1292591695853 604 311.0942601429381 Z " class="even" fill="#ffffff"></path><path d="M 116.25 330.95547464893014 C 116.9375 330.9309857058417 118.07684918721756 331.4934857058417 118.7818870827057 332.20547464893014 C 119.48692497819383 332.9174635920185 119.93692497819383 334.625 119.7818870827057 336 C 119.57548322533366 337.83055441376445 118.83055441376445 338.57548322533364 117 338.7818870827057 C 115.625 338.9369249781938 113.91746359201855 338.4869249781938 113.20547464893012 337.7818870827057 C 112.49348570584169 337.07684918721753 111.93098570584169 335.9375 111.95547464893012 335.25 C 111.97996359201855 334.5625 112.675 333.325 113.5 332.5 C 114.325 331.675 115.5625 330.9799635920185 116.25 330.95547464893014 Z " class="even" fill="#ffffff"></path><path d="M 133.66713370037172 333.25 C 134.58405723557615 333.3875 135.48405723557616 334.0625 135.66713370037172 334.75 C 135.85201796644577 335.44428876654274 135.11086202646842 336 134 336 C 132.88888888888889 336 132 335.3333333333333 132 334.5 C 132 333.66652659580586 132.74079263337464 333.1110877659676 133.66713370037172 333.25 Z " class="even" fill="#ffffff"></path><path d="M 623.75 332.97222222222223 C 624.9875 332.9875 626.45 333.9 627 335 C 627.55 336.1 627.775 337.675 627.5 338.5 C 627.225 339.325 626.1 340.225 625 340.5 C 623.9 340.775 622.3049635920186 340.4375 621.4554746489301 339.75 C 620.6059857058417 339.0625 619.9184857058417 337.6 619.9276968711524 336.5 C 619.936908036463 335.4 620.2944444444445 334.15 620.7222222222222 333.72222222222223 C 621.15 333.2944444444445 622.5125 332.95694444444445 623.75 332.97222222222223 Z " class="even" fill="#ffffff"></path><path d="M 606 335 C 607.1111111111111 335 607.8518518518518 335.55555555555554 607.6666666666667 336.25 C 607.4833333333333 336.9375 606.7333333333333 337.5 606 337.5 C 605.2666666666667 337.5 604.5166666666667 336.9375 604.3333333333333 336.25 C 604.1481481481482 335.55555555555554 604.8888888888889 335 606 335 Z " class="even" fill="#ffffff"></path><path d="M 113.29473977520055 347.82607078530987 C 114.28184665156087 348.19673185338945 115.30582316859483 349.175 115.57024314638713 350 C 115.83466312417941 350.825 115.70203022533917 352.3244917104882 115.27550337118656 353.3322038010848 C 114.71548826926193 354.65529514605385 113.6663932978181 355.0720984971448 111.5 354.8322038010848 C 109.16774825775623 354.5739428364648 108.42647155183114 353.94354311853647 108.16965792580606 352 C 107.95875942243059 350.4039385242549 108.50112253698353 349.0755360632373 109.66965792580606 348.32607078530987 C 110.67634606661272 347.6804097172303 112.30763289884025 347.4554097172303 113.29473977520055 347.82607078530987 Z " class="even" fill="#ffffff"></path><path d="M 628 348.9109492978602 C 628.825 348.9109492978602 630.0625 349.60598570584165 630.75 350.45547464893014 C 631.4375 351.30496359201857 631.8875 352.739267517266 631.75 353.64281670503556 C 631.6125 354.54636589280517 630.7125 355.7838658928052 629.75 356.39281670503556 L 628 357.5 L 626.25 356.39281670503556 C 625.2875 355.7838658928052 624.3875 354.54636589280517 624.25 353.64281670503556 C 624.1125 352.739267517266 624.5625 351.30496359201857 625.25 350.45547464893014 C 625.9375 349.60598570584165 627.175 348.9109492978602 628 348.9109492978602 Z " class="even" fill="#ffffff"></path><path d="M 129.25 355.56598300562507 C 129.6625 355.8046923525313 130 358.025 130 360.5 C 130 362.975 129.55 365.225 129 365.5 C 128.45 365.775 127.76927188396138 365.8875 127.48727085324751 365.75 C 127.20526982253364 365.6125 126.64276982253365 363.5620131155465 126.23727085324751 361.1933624789922 C 125.66552507575288 357.8536104638539 125.83676580667156 356.68974402058075 127 356.00934548461726 C 127.82499999999999 355.5267867742653 128.8375 355.3272736587188 129.25 355.56598300562507 Z " class="even" fill="#ffffff"></path><path d="M 611.5 357 C 612.6746031746031 357 612.9457671957672 358.1388888888889 612.75 362.25 C 612.6125 365.1375 612.0668815901762 367.5 611.5375146448362 367.5 C 611.008147699496 367.5 610.1811314093043 365.7 609.6997006666322 363.5 C 609.2182699239602 361.3 609.088888333784 358.9375 609.4121860217961 358.25 C 609.7354837098082 357.5625 610.675 357 611.5 357 Z " class="even" fill="#ffffff"></path><path d="M 112.75 363.8896373283029 C 113.7125 364.3789378588695 115.175 365.9817906456897 116 367.45153241012565 C 117.13216798166425 369.46849552165173 117.2293775024675 370.53774952312256 116.39641541229773 371.81189508182274 C 115.78944388906147 372.7403527868202 114.08425138288395 373.95 112.6070987319032 374.5 C 110.75061420694014 375.1912396549211 109.39317546712881 375.1597067186084 108.21068331960548 374.3978724541047 C 107.26980749382247 373.7917023038623 106.35263488078068 372.4417023038623 106.17252195729041 371.3978724541047 C 105.99240903380014 370.3540426043471 107.00490903380015 368.0375 108.42252195729041 366.25 C 110.41917288666782 363.7323779628963 111.39435736463646 363.2004771612981 112.75 363.8896373283029 Z " class="even" fill="#ffffff"></path><path d="M 628.25 364.97428580390675 C 628.6625 364.988428611758 629.7334599761997 365.7875 630.6299110582216 366.75 C 631.5263621402436 367.7125 632.6513621402436 369.2875 633.1299110582216 370.25 C 633.6084599761997 371.2125 633.775 372.9 633.5 374 C 633.225 375.1 632.325 376.225 631.5 376.5 C 630.675 376.775 628.65 376.55 627 376 C 624.9151903089829 375.30506343632766 623.8207638752004 374.161075550099 623.4124627750964 372.25 C 622.9708555977187 370.1830335401509 623.4055133050875 368.9347675913712 625.1624627750964 367.22428580390675 C 626.4481082487933 365.97264299605547 627.8375 364.9601429960555 628.25 364.97428580390675 Z " class="even" fill="#ffffff"></path><path d="M 122 381 C 123.11111111111111 381 124 381.6666666666667 124 382.5 C 124 383.3333333333333 123.11111111111111 384 122 384 C 120.88888888888889 384 120 383.3333333333333 120 382.5 C 120 381.6666666666667 120.88888888888889 381 122 381 Z " class="even" fill="#ffffff"></path><path d="M 618 382 C 618.55 382 619.225 382.45 619.5 383 C 619.775 383.55 619.3205826967894 384.3375 618.4901837706432 384.75 L 616.9803675412863 385.5 L 616.4901837706432 384.75 C 616.2205826967894 384.3375 616.225 383.55 616.5 383 C 616.775 382.45 617.45 382 618 382 Z " class="even" fill="#ffffff"></path><path d="M 109.75 392.26369504303216 C 110.7125 392.40872731669987 111.5 392.9650645473354 111.5 393.5 C 111.5 394.0349354526646 110.7125 394.59127268330013 109.75 394.73630495696784 C 108.74391331420793 394.88790499805583 108 394.3623600163932 108 393.5 C 108 392.6376399836068 108.74391331420793 392.11209500194417 109.75 392.26369504303216 Z " class="even" fill="#ffffff"></path><path d="M 631 393.5 C 631.55 393.775 632 394.675 632 395.5 C 632 396.325 631.4375 397.0125 630.75 397.02777777777777 C 630.0625 397.04305555555555 629.1660795080186 396.7055555555555 628.7579544622635 396.27777777777777 C 628.3498294165083 395.85 628.4623294165084 394.9375 629.0079544622635 394.25 C 629.5535795080185 393.5625 630.45 393.225 631 393.5 Z " class="even" fill="#ffffff"></path><path d="M 133 405 C 134.11111111111111 405 135 405.6666666666667 135 406.5 C 135 407.3333333333333 134.11111111111111 408 133 408 C 131.88888888888889 408 131 407.3333333333333 131 406.5 C 131 405.6666666666667 131.88888888888889 405 133 405 Z " class="even" fill="#ffffff"></path><path d="M 607.4 406.2202380952381 C 607.895 406.37410714285716 608.4575 407.0625 608.65 407.75 C 608.846 408.45 608.12 409 607 409 C 605.9 409 604.9875 408.6625 604.9722222222222 408.25 C 604.9569444444445 407.8375 605.2944444444445 407.14910714285713 605.7222222222222 406.7202380952381 C 606.15 406.29136904761907 606.905 406.06636904761905 607.4 406.2202380952381 Z " class="even" fill="#ffffff"></path><path d="M 116.75 410.98333333333335 C 117.4375 410.9925 118.41734707575536 411.7875 118.92743794612302 412.75 C 119.43752881649068 413.7125 120.22502881649068 416.420864882729 120.67743794612302 418.76858862828664 C 121.35106299308077 422.2642862496639 121.22840284896945 423.0344114057594 120 423.0219017788846 C 119.175 423.01350026615586 117.2625 421.8801353834269 115.75 420.503313150598 C 114.2375 419.1264909177691 112.9925 416.9875 112.98333333333333 415.75 C 112.97416666666666 414.5125 113.53666666666666 412.93 114.23333333333333 412.23333333333335 C 114.93 411.53666666666663 116.0625 410.97416666666663 116.75 410.98333333333335 Z " class="even" fill="#ffffff"></path><path d="M 625.2825947355461 413.80149228788 C 626.2630218400965 414.735671529546 627.0505218400965 416.5125 627.0325947355461 417.75 C 627.014223142655 419.01818283113585 625.8000012380548 420.8878181684644 624.25 422.03458540183794 C 622.7375 423.1536073728488 620.7125 424.0536073728488 619.75 424.03458540183794 C 618.7875 424.01556343082706 617.9947930138918 423.8875 617.9884289197595 423.75 C 617.9820648256272 423.6125 618.728819249835 421.25 619.6478831957769 418.5 C 620.5669471417187 415.75 621.809654127827 413.18567152954597 622.4094542760174 412.80149228788 C 623.0092544242078 412.417313046214 624.3021676309958 412.867313046214 625.2825947355461 413.80149228788 Z " class="even" fill="#ffffff"></path><path d="M 141.75 422.95547464893014 C 142.1625 422.9309857058417 143.05892049198144 423.4934857058417 143.74204553773654 424.20547464893014 C 144.42517058349162 424.9174635920185 144.65017058349162 425.85 144.24204553773654 426.27777777777777 C 143.83392049198144 426.7055555555555 142.9375 427.04305555555555 142.25 427.02777777777777 C 141.5625 427.0125 141 426.1 141 425 C 141 423.9 141.3375 422.9799635920185 141.75 422.95547464893014 Z " class="even" fill="#ffffff"></path><path d="M 597.75 424.97222222222223 C 598.4375 424.9875 599 425.675 599 426.5 C 599 427.325 598.325 428 597.5 428 C 596.675 428 595.7850884003552 427.6625 595.5224186674561 427.25 C 595.259748934557 426.8375 595.372248934557 426.15 595.7724186674561 425.72222222222223 C 596.1725884003553 425.2944444444445 597.0625 424.95694444444445 597.75 424.97222222222223 Z " class="even" fill="#ffffff"></path><path d="M 125 436.0942601429381 C 125.825 436.05926111629094 127.04416760785861 436.36123480050145 127.70926135079691 436.76531277451704 C 128.3743550937352 437.1693907485327 129.2743550937352 438.97291666666666 129.7092613507969 440.77314814814815 C 130.40223141226016 443.64159738315954 130.25271579847936 444.04760172554256 128.5 444.05685442526897 C 127.4 444.06266139620396 125.2625 442.9272447295373 123.75 441.5337062771208 C 122.2375 440.1401678247044 121 438.55 121 438 C 121 437.45 121.5625 436.81052631578945 122.25 436.57894736842104 C 122.9375 436.34736842105264 124.175 436.1292591695853 125 436.0942601429381 Z " class="even" fill="#ffffff"></path><path d="M 615 438 C 616.65 438 618.225 438.45 618.5 439 C 618.775 439.55 618.4375 440.72930181783846 617.75 441.6206707063077 C 617.0625 442.512039594777 615.15 443.8959953114316 613.5 444.69612785442905 C 611.85 445.4962603974265 610.19497335219 445.77945857958804 609.8221630048668 445.32545714812136 C 609.4493526575435 444.8714557166546 609.7868526575435 443.0375 610.5721630048668 441.25 C 611.72635936048 438.6228526655852 612.5749409220787 438 615 438 Z " class="even" fill="#ffffff"></path><path d="M 160.5 439 C 161.325 439 162 439.675 162 440.5 C 162 441.325 161.325 442 160.5 442 C 159.675 442 159 441.325 159 440.5 C 159 439.675 159.675 439 160.5 439 Z " class="even" fill="#ffffff"></path><path d="M 579.25 440.33333333333337 C 579.9375 440.5166666666667 580.5 441.26666666666665 580.5 442 C 580.5 442.73333333333335 579.9375 443.4833333333333 579.25 443.66666666666663 C 578.5555555555555 443.85185185185185 578 443.11111111111114 578 442 C 578 440.88888888888886 578.5555555555555 440.14814814814815 579.25 440.33333333333337 Z " class="even" fill="#ffffff"></path><path d="M 181 454.05565427220904 C 181.825 454.016539191463 183.5125 454.6630153562744 184.75 455.49226797178994 C 186.24828177150889 456.49627126698425 187 458.0022909713215 187 460 C 187 461.65 186.325 463.675 185.5 464.5 C 184.40640338559646 465.5935966144035 183.25492712640647 465.7690822133485 181.25 465.14770227745794 C 179.7375 464.6789385300598 177.0375 463.5539385300598 175.25 462.64770227745794 C 173.4625 461.74146602485604 171.7833677551256 460.6625 171.5185950113902 460.25 C 171.2538222676548 459.8375 171.8163222676548 458.74151981417754 172.7685950113902 457.8144884759501 C 173.7208677551256 456.88745713772266 175.625 455.67848097291125 177 455.12787477636914 C 178.375 454.5772685798271 180.175 454.09476935295504 181 454.05565427220904 Z " class="even" fill="#ffffff"></path><path d="M 558.5 456 C 559.875 456 562.5845564747171 456.7875 564.5212366104824 457.75 C 566.4579167462477 458.7125 568.0329167462478 460.0625 568.0212366104824 460.75 C 568.0095564747171 461.4375 566.9875 462.6263265878607 565.75 463.39183686191274 C 564.5125 464.15734713596476 561.7693089756267 465.39484713596477 559.6540199458373 466.14183686191274 L 555.8080398916744 467.5 L 553.8615714547693 465 C 552.7910138144715 463.625 551.9342048388447 461.9375 551.957551508932 461.25 C 551.9808981790195 460.5625 552.9 459.1 554 458 C 555.1 456.9 557.125 456 558.5 456 Z " class="even" fill="#ffffff"></path><path d="M 146.5 458 C 147.325 458 148.45 458.9 149 460 C 149.55 461.1 150 462.45 150 463 C 150 463.55 148.425 464 146.5 464 C 144.575 464 142.7931290616744 463.6625 142.54028680372085 463.25 C 142.2874445457673 462.8375 142.73744454576732 461.4875 143.54028680372085 460.25 C 144.34312906167438 459.0125 145.675 458 146.5 458 Z " class="even" fill="#ffffff"></path><path d="M 595.0319823579135 460.25 C 596.2076427943232 460.97322259087974 596.9451311670916 462.34284385459245 596.7819823579135 463.5 C 596.5750616289665 464.96761471517635 595.6348739121617 465.56654816060296 593.25 465.75 C 590.5833333333334 465.95512820512823 590 465.64102564102564 590 464 C 590 462.9 590.675 461.325 591.5 460.5 C 592.7317687004432 459.26823129955676 593.363360845693 459.223526082964 595.0319823579135 460.25 Z " class="even" fill="#ffffff"></path><path d="M 205 462 C 206.11111111111111 462 207 462.6666666666667 207 463.5 C 207 464.3333333333333 206.11111111111111 465 205 465 C 203.88888888888889 465 203 464.3333333333333 203 463.5 C 203 462.6666666666667 203.88888888888889 462 205 462 Z " class="even" fill="#ffffff"></path><path d="M 534.5 464 C 535.325 464 536.225 464.45 536.5 465 C 536.775 465.55 536.325 466.225 535.5 466.5 C 534.675 466.775 533.775 467 533.5 467 C 533.225 467 533 466.325 533 465.5 C 533 464.675 533.675 464 534.5 464 Z " class="even" fill="#ffffff"></path><path d="M 162.75 467.97222222222223 C 163.4375 467.9875 166.025 470.25 168.5 473 C 170.975 475.75 173 478.45 173 479 C 173 479.55 172.2125 480.01290634031125 171.25 480.0286807562471 C 170.2875 480.04445517218306 167.6838760723405 478.8069551721831 165.4641690496456 477.2786807562471 C 162.80062004298304 475.444819908462 161.27050918785142 473.5515059401828 160.9641690496456 471.7105136991461 C 160.7088760723405 470.17629623367645 160.725 468.7012962336765 161 468.43273592136836 C 161.275 468.1641756090602 162.0625 467.95694444444445 162.75 467.97222222222223 Z " class="even" fill="#ffffff"></path><path d="M 222.75 467.97876338951755 C 224.5375 467.9904435252829 226.2795227968309 468.5625 226.6211617707353 469.25 C 226.96280074463974 469.9375 226.62530074463973 471.54143700560667 225.8711617707353 472.81430445690376 C 225.1170227968309 474.0871719082008 223.6 475.3675644684948 222.5 475.659621257557 C 221.4 475.95167804661924 219.4875 475.92274104101256 218.25 475.5953168006533 L 216 475 L 217.75 471.47876338951755 C 219.21960120560777 468.5217270649488 220.02074061815696 467.9609294761643 222.75 467.97876338951755 Z " class="even" fill="#ffffff"></path><path d="M 517.75 469.01531277451704 C 519.2584782468467 469.005046557958 520.4943478354355 469.988695670871 521.5 472 C 522.325 473.65 523 475.45 523 476 C 523 476.55 521.0958536126668 476.8875 518.768563583704 476.75 C 515.1447441303557 476.5358989775084 514.3908656026788 476.0974946518092 513.518563583704 473.696958129961 C 512.7160090459568 471.4883635873261 512.8181083381726 470.6963401560643 514 469.96227090447803 C 514.825 469.4498659589839 516.5125 469.0237348005015 517.75 469.01531277451704 Z " class="even" fill="#ffffff"></path><path d="M 578 469 C 578.55 469 579.0115713882419 470.2375 579.0257141960933 471.75 C 579.0406304243771 473.3452133067693 578.0958049480976 475.3957058025293 576.7757141960933 476.63302679308197 C 575.524071388242 477.8061915292771 573.0375 479.4936915292771 571.25 480.38302679308197 C 569.4625 481.2723620568869 567.775 482 567.5 482 C 567.225 482 567 481.325 567 480.5 C 567 479.675 569.25 476.75 572 474 C 574.75 471.25 577.45 469 578 469 Z " class="even" fill="#ffffff"></path><path d="M 247 475 C 247.55 475 249.35 475.675 251 476.5 C 252.65 477.325 254.7875 479.5822593773207 255.75 481.51613194960163 C 256.7125 483.45000452188253 257.275 485.2679237122045 257 485.5559523725393 C 256.725 485.8439810328742 254.5875 485.6117216555534 252.25 485.03982042293774 C 249.18156229692218 484.28908531936776 247.72198534190068 483.30496335475164 247 481.5 C 246.45 480.125 246 478.1 246 477 C 246 475.9 246.45 475 247 475 Z " class="even" fill="#ffffff"></path><path d="M 493.2214121069636 476.8005448354054 C 493.6181887657936 477.18524517593244 493.3931887657936 479.2473874688116 492.7214121069636 481.3830832640258 C 491.9647593511887 483.7886150545471 490.6438528124843 485.5960368948581 489.25 486.1330832640258 C 488.0125 486.6098874688116 485.875 487 484.5 487 C 483.125 487 482 486.775 482 486.5 C 482 486.225 482.8588427860987 484.5375 483.9085395246638 482.75 C 484.9582362632289 480.9625 487.3207362632289 478.73524517593245 489.1585395246638 477.8005448354054 C 490.9963427860987 476.86584449487833 492.8246354481336 476.41584449487834 493.2214121069636 476.8005448354054 Z " class="even" fill="#ffffff"></path><path d="M 190.75 484.26369504303216 C 191.7125 484.40872731669987 192.5 484.9650645473354 192.5 485.5 C 192.5 486.0349354526646 191.7125 486.59127268330013 190.75 486.73630495696784 C 189.74391331420793 486.88790499805583 189 486.3623600163932 189 485.5 C 189 484.6376399836068 189.74391331420793 484.11209500194417 190.75 484.26369504303216 Z " class="even" fill="#ffffff"></path><path d="M 196.25 485.3328662996283 C 196.9375 485.5159427644238 197.6125 486.41594276442385 197.75 487.3328662996283 C 197.88891223403235 488.2592073666254 197.33347340419417 489 196.5 489 C 195.675 489 194.775 488.55 194.5 488 L 194 487 L 194.5 486 C 194.775 485.45 195.5625 485.14978983483275 196.25 485.3328662996283 Z " class="even" fill="#ffffff"></path><path d="M 549 485 C 549.55 485 550.225 485.45 550.5 486 C 550.775 486.55 550.3205826967894 487.3375 549.4901837706432 487.75 L 547.9803675412863 488.5 L 547.4901837706432 487.75 C 547.2205826967894 487.3375 547.225 486.55 547.5 486 C 547.775 485.45 548.45 485 549 485 Z " class="even" fill="#ffffff"></path><path d="M 216 485.9507385977872 C 216.275 485.94197815990356 217.4 486.8521318926177 218.5 487.9733024482631 C 219.6 489.09447300390855 220.275 490.2609164160276 220 490.56539891963877 C 219.725 490.8698814232499 218.0375 490.8672276905358 216.25 490.55950173582954 C 214.4625 490.2517757811233 212.9925 489.6625 212.98333333333335 489.25 C 212.97416666666666 488.8375 213.53666666666666 487.93 214.23333333333335 487.23333333333335 C 214.93 486.53666666666663 215.725 485.9594990356709 216 485.9507385977872 Z " class="even" fill="#ffffff"></path><path d="M 241.4 487.2202380952381 C 241.895 487.37410714285716 242.4575 488.0625 242.65 488.75 C 242.846 489.45 242.12 490 241 490 C 239.9 490 238.9875 489.6625 238.97222222222223 489.25 C 238.95694444444445 488.8375 239.29444444444445 488.14910714285713 239.72222222222223 487.7202380952381 C 240.15 487.29136904761907 240.905 487.06636904761905 241.4 487.2202380952381 Z " class="even" fill="#ffffff"></path><path d="M 543.75 487.26369504303216 C 544.7125 487.40872731669987 545.5 487.9650645473354 545.5 488.5 C 545.5 489.0349354526646 544.7125 489.59127268330013 543.75 489.73630495696784 C 542.7439133142079 489.88790499805583 542 489.3623600163932 542 488.5 C 542 487.6376399836068 542.7439133142079 487.11209500194417 543.75 487.26369504303216 Z " class="even" fill="#ffffff"></path><path d="M 523.9842516087188 488.18661993924866 C 524.800589993514 488.3589789726619 525.610099107632 489.175 525.783160751203 490 C 525.9815318070044 490.9456521829972 525.1321780982245 491.6847826056676 523.4849095015485 492 C 522.0478096706673 492.275 520.6758005565493 492.1625 520.4360003590641 491.75 C 520.1962001615789 491.3375 520.5625 490.2964789726619 521.25 489.43661993924866 C 521.9375 488.5767609058354 523.1679132239234 488.0142609058354 523.9842516087188 488.18661993924866 Z " class="even" fill="#ffffff"></path><path d="M 499 489 C 500.1111111111111 489 501 489.6666666666667 501 490.5 C 501 491.3333333333333 500.1111111111111 492 499 492 C 497.8888888888889 492 497 491.3333333333333 497 490.5 C 497 489.6666666666667 497.8888888888889 489 499 489 Z " class="even" fill="#ffffff"></path><path d="M 211 491 C 211.55 491 212 491.225 212 491.5 C 212 491.775 211.55 492.225 211 492.5 C 210.45 492.775 210 492.55 210 492 C 210 491.45 210.45 491 211 491 Z " class="even" fill="#ffffff"></path><path d="M 245 552 L 58 552 L 53.5 557 C 51.025 559.75 49.00267756061753 562.5625 49.005950134705614 563.25 C 49.0092227087937 563.9375 49.767710299766925 566.525 50.69147811464612 569 C 51.6152459295253 571.475 53.79038126338699 575.75 55.525112189894315 578.5 C 57.25984311640165 581.25 61.56131004249359 587.1 65.08392758120975 591.5 C 68.60654511992591 595.9 72.14554792161972 601.525 72.94837825164043 604 C 73.84158045134838 606.7536023012734 74.42590828946194 612.6712846336803 74.45403488038451 619.2482853792404 L 74.5 629.9965707584809 L 255.25 629.9982853792404 C 354.6625 629.9992284206581 436 629.775 436 629.5 C 436 629.225 434.875 627.2 433.5 625 C 432.125 622.8 429.23771153210924 617.5125 427.0838034046872 613.25 C 424.9298952772652 608.9875 422.1816153419252 601.45 420.9765146594872 596.5 C 419.291303738466 589.5779276946565 418.9135870515954 585.7683935877862 419.3405336816228 580 C 419.6458448262354 575.875 420.36912476157545 570.8125 420.9478224268229 568.75 C 421.5265200920703 566.6875 424.25 562.075 427 558.5 L 432 552 L 245 552 Z " class="odd" fill="#000000"></path><path d="M 485.25 551.9833333333333 C 483.6256105582306 551.9734885488377 482.9093129302657 552.3141851361739 483.5 552.8156954752159 C 484.05 553.2826613199179 487.35379972569496 555.8776613199179 490.84177716821097 558.5823621418825 C 494.329754610727 561.2870629638471 498.87652628602035 565.75 500.94571422441845 568.5 C 503.01490216281655 571.25 506.5326668820624 576.875 508.762969156076 581 C 510.9932714300896 585.125 514.9230620242816 593.45 517.4958371431694 599.5 C 520.0686122620573 605.55 523.4378476727932 614.1 524.9830269448046 618.5 C 526.528206216816 622.9 528.0641439473306 627.2875 528.3962219015036 628.25 C 528.7282998556766 629.2125 529.675 630 530.5 630 C 531.325 630 532.0059464749435 629.8875 532.0132143887633 629.75 C 532.0204823025832 629.6125 531.0756357843765 626.575 529.913555459415 623 C 528.7514751344536 619.425 526.0162027035249 612 523.8351722795734 606.5 C 521.6541418556219 601 517.8837009129488 592.45 515.4564146291889 587.5 C 513.0291283454288 582.55 511.03345430141405 578.1625 511.0215834202671 577.75 C 511.0097125391202 577.3375 509.425 574.525 507.5 571.5 C 505.575 568.475 501.1875 563.2860836221699 497.75 559.9690747159333 C 493.6392988040582 556.0024616314776 492.0990036651363 553.9487347795816 493.25 553.9690747159333 C 494.2125 553.98608362217 495 553.55 495 553 C 495 552.45 494.325 552 493.5 552 C 492.675 552 492 552.45 492 553 L 492 554 L 490 553 C 488.9 552.45 486.7625 551.9925000000001 485.25 551.9833333333333 Z " class="odd" fill="#000000"></path><path d="M 513.5 552 C 512.675 552 512.225 552.45 512.5 553 C 512.775 553.55 513.45 553.775 514 553.5 C 514.55 553.225 515 552.775 515 552.5 C 515 552.225 514.325 552 513.5 552 Z " class="odd" fill="#000000"></path><path d="M 560 552 C 555.6 552 552 552.225 552 552.5 C 552 552.775 553.3420606675718 557.6125 554.9823570390483 563.25 C 556.6226534105249 568.8875 558.4087593607373 576.875 558.9514813728537 581 C 559.49420338497 585.125 559.9521427173983 592.2125 559.9691243338053 596.75 C 559.9861059502124 601.2875 560.45 605.225 561 605.5 C 561.55 605.775 562.302655793589 605.4375 562.6725684301978 604.75 C 563.0424810668064 604.0625 563.5042156196286 598.775 563.6986452142469 593 C 563.8930748088653 587.225 564.1529190152763 580.5875 564.2760767840492 578.25 C 564.3992345528221 575.9125 564.8375 574 565.25 574 C 565.6625 574 567.518493327372 576.1375 569.3744296163823 578.75 C 571.2303659053924 581.3625 573.7694418005331 585.525 575.0168204944725 588 C 576.6180850563749 591.1771664931935 577.2549701426399 594.1167965083191 577.1833689478085 598 C 577.1275919032037 601.025 576.3580127126173 607.325 575.4731929687277 612 C 574.5883732248382 616.675 573.5574330934651 622.6427122734776 573.1822148990098 625.2615828299502 C 572.6794843898218 628.7704375385123 572.8288633649058 630.0201183251544 573.75 630.0115828299502 C 574.4375 630.0052122734776 575 628.875 575 627.5 C 575 626.125 575.5186399730832 623.9875 576.1525332735182 622.75 C 576.7864265739531 621.5125 577.7989265739532 618.475 578.4025332735182 616 C 579.0061399730831 613.525 579.9430207382661 611.5 580.4844905294801 611.5 C 581.0259603206941 611.5 583.2759603206941 615.6481597979852 585.4844905294801 620.7181328844115 C 588.3268065972578 627.2430452036645 590.011289655739 629.9455762411422 591.25 629.9681328844115 C 592.2125 629.9856597979851 593 629.55 593 629 C 593 628.45 591.489913813228 624.5125 589.6442529182843 620.25 C 587.7985920233408 615.9875 585.0985920233408 610.1375 583.6442529182843 607.25 C 581.3392316881708 602.6735234555597 581 600.7812432708921 581 592.5 C 581 585.1734879388439 580.5675686990322 582.1420442346669 579.1099056103442 579.25 C 578.0703536960334 577.1875 574.6503793094469 572.125 571.5099625290408 568 C 566.8939572855094 561.9367851591009 565.9241430368631 560.021071613633 566.4475446589968 558 C 566.8036316108786 556.625 567.2986059974651 554.7125 567.5474877403001 553.75 C 567.9504932681431 552.1914573116917 567.1247665751238 552 560 552 Z " class="odd" fill="#000000"></path></g></svg>